<svg xmlns="http://www.w3.org/2000/svg" version="1.1" xmlns:xlink="http://www.w3.org/1999/xlink" xmlns:svgjs="http://svgjs.com/svgjs" width="512" height="512" x="0" y="0" viewBox="0 0 64 64" style="enable-background:new 0 0 512 512" xml:space="preserve" class=""><g><path d="M31 39v5h2v-5a3 3 0 0 1 3-3h9v-2h-9a5.006 5.006 0 0 0-5 5zM33 26v-6h-2v6a3 3 0 0 1-3 3h-7v2h7a5.006 5.006 0 0 0 5-5zM47 30h4v2h-4zM6 17v1.34a3 3 0 0 0 .88 2.12L8 21.59V19a1 1 0 0 1 .74-.97L19 15.3V8h-4a9.014 9.014 0 0 0-9 9z" fill="#FFCA40" data-original="#000000" class="" opacity="1"></path><path d="M10 30a10.006 10.006 0 0 0 9 9.95V32h-3v-2h3V17.37l-9 2.4zm5-8a3 3 0 0 1 3 3h-2a1 1 0 0 0-2 0h-2a3 3 0 0 1 3-3zM58 25h2v4h-2zM50.5 14.13l7 4a1 1 0 0 1 .5.87v2.59l1.12-1.13a3 3 0 0 0 .88-2.12V16h-3a1 1 0 0 1-1-1v-3h2v2h2V8h-7v3a1 1 0 0 1-1 1h-4v-2h3V8h-4v6.77l2.74-.74a1.055 1.055 0 0 1 .76.1zM37.1 50.89a1.019 1.019 0 0 1 .06-.9l.65-1.08-1.72-1.72-1.08.64a.989.989 0 0 1-.9.07 1.007 1.007 0 0 1-.59-.68l-.3-1.22h-2.44l-.3 1.22a1.007 1.007 0 0 1-.59.68.989.989 0 0 1-.9-.07l-1.08-.64-1.72 1.72.65 1.08a1.019 1.019 0 0 1 .06.9 1.007 1.007 0 0 1-.68.59l-1.22.3v2.44l1.22.3a1.007 1.007 0 0 1 .68.59 1.019 1.019 0 0 1-.06.9l-.65 1.08 1.72 1.72 1.08-.64a.989.989 0 0 1 .9-.07 1.007 1.007 0 0 1 .59.68l.3 1.22h2.44l.3-1.22a1.007 1.007 0 0 1 .59-.68.989.989 0 0 1 .9.07l1.08.64 1.72-1.72-.65-1.08a1.019 1.019 0 0 1-.06-.9 1.007 1.007 0 0 1 .68-.59l1.22-.3v-2.44l-1.22-.3a1.007 1.007 0 0 1-.68-.59zM32 57a4 4 0 1 1 4-4 4 4 0 0 1-4 4zM26.9 13.11a1.019 1.019 0 0 1-.06.9l-.65 1.08 1.72 1.72 1.08-.64a.989.989 0 0 1 .9-.07 1.007 1.007 0 0 1 .59.68l.3 1.22h2.44l.3-1.22a1.007 1.007 0 0 1 .59-.68.989.989 0 0 1 .9.07l1.08.64 1.72-1.72-.65-1.08a1.019 1.019 0 0 1-.06-.9 1.007 1.007 0 0 1 .68-.59l1.22-.3V9.78l-1.22-.3a1.007 1.007 0 0 1-.68-.59 1.019 1.019 0 0 1 .06-.9l.65-1.08-1.72-1.72-1.08.64a.989.989 0 0 1-.9.07 1.007 1.007 0 0 1-.59-.68L33.22 4h-2.44l-.3 1.22a1.007 1.007 0 0 1-.59.68.989.989 0 0 1-.9-.07l-1.08-.64-1.72 1.72.65 1.08a1.019 1.019 0 0 1 .06.9 1.007 1.007 0 0 1-.68.59l-1.22.3v2.44l1.22.3a1.007 1.007 0 0 1 .68.59zM32 7a4 4 0 1 1-4 4 4 4 0 0 1 4-4z" fill="#FFCA40" data-original="#000000" class="" opacity="1"></path><circle cx="32" cy="11" r="2" fill="#FFCA40" data-original="#000000" class="" opacity="1"></circle><path d="M18 44a1.014 1.014 0 0 1-.4.8l-2.78 2.09L19 49.28v-7.33c-.34-.03-.67-.08-1-.13zM7 29h1v-4H7a1 1 0 0 0-1 1v2a1 1 0 0 0 1 1zM4 48v5a7.008 7.008 0 0 0 7 7h8v-8.42L12.73 48z" fill="#FFCA40" data-original="#000000" class="" opacity="1"></path><circle cx="32" cy="53" r="2" fill="#FFCA40" data-original="#000000" class="" opacity="1"></circle><path d="M53.27 48 47 51.58V60h15V48zm.73 2h2v2h-2zm-3 8h-2v-2h2zm9 0h-7v-2h7zm0-6h-2v-2h2zM56 37V19.58l-6.14-3.51-2.86.77V28h5a1 1 0 0 1 1 1v4a1 1 0 0 1-1 1h-5v6h6a3.009 3.009 0 0 0 3-3zm-5-11a3 3 0 1 1 3-3 3 3 0 0 1-3 3z" fill="#FFCA40" data-original="#000000" class="" opacity="1"></path><circle cx="51" cy="23" r="1" fill="#FFCA40" data-original="#000000" class="" opacity="1"></circle><path d="M48.4 44.8a1.014 1.014 0 0 1-.4-.8v-2h-1v7.28l4.18-2.39z" fill="#FFCA40" data-original="#000000" class="" opacity="1"></path></g></svg>